<?xml version="1.0" encoding="UTF-8"?>
<!-- Generator: visioncortex VTracer 0.6.3 -->
<svg version="1.1" xmlns="http://www.w3.org/2000/svg" width="512" height="512">
<path d="M0 0 C0.89 -0.01 1.79 -0.01 2.71 -0.02 C5.68 -0.04 8.64 -0.05 11.6 -0.06 C12.62 -0.07 13.63 -0.07 14.68 -0.07 C20.04 -0.09 25.41 -0.11 30.77 -0.12 C36.3 -0.13 41.84 -0.16 47.37 -0.2 C51.63 -0.23 55.89 -0.24 60.15 -0.24 C62.19 -0.25 64.23 -0.26 66.27 -0.28 C69.13 -0.3 71.99 -0.3 74.85 -0.29 C75.69 -0.31 76.52 -0.32 77.39 -0.33 C84.02 -0.27 89.18 1.58 94.27 5.89 C99.72 12.59 101.06 18.61 100.25 27.18 C99.15 33.24 96.25 36.91 91.46 40.7 C83.02 46.33 75.86 45.18 65.25 45.18 C65.25 60.03 65.25 74.88 65.25 90.18 C67.56 90.18 69.87 90.18 72.25 90.18 C105.74 94.71 143.54 109.64 168.83 132.62 C170.55 134.22 170.55 134.22 173.25 136.18 C176.43 135.86 178.07 134.73 180.27 132.49 C180.83 131.93 181.39 131.37 181.97 130.79 C182.56 130.19 183.16 129.58 183.76 128.95 C184.38 128.33 185 127.71 185.63 127.08 C187.59 125.1 189.55 123.11 191.5 121.11 C192.83 119.77 194.16 118.43 195.49 117.08 C198.75 113.79 202 110.48 205.25 107.18 C203.96 104.3 202.63 102.35 200.32 100.22 C199.75 99.69 199.18 99.15 198.6 98.59 C197.42 97.49 196.23 96.4 195.04 95.31 C190.3 90.78 187.59 86.26 187.03 79.64 C187.88 73.31 189.91 69.39 194.62 64.93 C199.79 61.48 203.88 60.95 209.91 61.5 C215.63 63.16 219.9 67.52 224.02 71.64 C224.57 72.18 225.11 72.71 225.67 73.26 C227.44 75.02 229.21 76.78 230.98 78.54 C232.22 79.77 233.46 81 234.7 82.23 C237.29 84.8 239.88 87.38 242.46 89.97 C245.77 93.26 249.09 96.54 252.41 99.82 C254.97 102.36 257.53 104.9 260.08 107.45 C261.29 108.67 262.52 109.88 263.74 111.08 C265.46 112.77 267.16 114.48 268.86 116.19 C269.37 116.68 269.87 117.17 270.39 117.67 C274.57 121.94 276.96 126.71 277.46 132.72 C276.63 139 274.52 142.77 270.12 147.43 C265.51 150.24 260.62 151.78 255.2 150.81 C248.59 149.01 244.76 145.43 240.19 140.49 C239.51 139.79 238.84 139.09 238.14 138.36 C236.5 136.65 234.87 134.92 233.25 133.18 C230.44 134.46 228.4 135.78 226.22 137.97 C225.66 138.53 225.1 139.1 224.53 139.67 C223.94 140.27 223.34 140.88 222.73 141.5 C222.12 142.12 221.5 142.73 220.87 143.37 C218.91 145.34 216.95 147.32 215 149.3 C213.67 150.64 212.34 151.98 211.01 153.32 C207.75 156.6 204.5 159.89 201.25 163.18 C201.63 163.68 202.01 164.19 202.4 164.71 C203.47 166.14 204.55 167.57 205.62 169.01 C206.96 170.79 208.3 172.57 209.64 174.35 C230.1 202.25 242.18 233.27 248.25 267.18 C248.45 268.27 248.45 268.27 248.66 269.39 C255.42 307.85 248.41 349.63 233.25 385.18 C232.94 385.92 232.63 386.66 232.3 387.42 C219.19 418.21 196.69 446.76 170.25 467.18 C169.71 467.6 169.17 468.02 168.61 468.46 C131.07 497.62 85.79 512.66 38.37 512.55 C37.47 512.55 36.58 512.55 35.65 512.55 C20.83 512.52 6.74 511.49 -7.75 508.18 C-8.59 508 -9.42 507.81 -10.28 507.63 C-29.03 503.47 -46.89 496.29 -63.75 487.18 C-64.35 486.86 -64.95 486.54 -65.56 486.21 C-100.43 467.49 -128.15 438.26 -147.75 404.18 C-148.12 403.55 -148.49 402.92 -148.87 402.27 C-176.08 355.56 -180.88 296.94 -167.75 245.18 C-155.86 201.19 -129.22 159.83 -92.75 132.18 C-91.72 131.39 -90.69 130.6 -89.63 129.79 C-61.87 109.09 -23.99 90.18 11.25 90.18 C11.25 75.33 11.25 60.48 11.25 45.18 C6.3 45.18 1.35 45.18 -3.75 45.18 C-11.14 43.6 -16.62 41.87 -20.97 35.36 C-24.81 28.38 -25.48 21.96 -23.47 14.28 C-21.34 8.06 -17.27 4.39 -11.75 1.18 C-7.83 -0.13 -4.09 0.01 0 0 Z " fill="#EBEFF0" transform="translate(204.750732421875,-0.177001953125)"/>
<path d="M0 0 C0.89 -0.01 1.79 -0.01 2.71 -0.02 C5.68 -0.04 8.64 -0.05 11.6 -0.06 C12.62 -0.07 13.63 -0.07 14.68 -0.07 C20.04 -0.09 25.41 -0.11 30.77 -0.12 C36.3 -0.13 41.84 -0.16 47.37 -0.2 C51.63 -0.23 55.89 -0.24 60.15 -0.24 C62.19 -0.25 64.23 -0.26 66.27 -0.28 C69.13 -0.3 71.99 -0.3 74.85 -0.29 C75.69 -0.31 76.52 -0.32 77.39 -0.33 C84.02 -0.27 89.18 1.58 94.27 5.89 C99.72 12.59 101.06 18.61 100.25 27.18 C99.15 33.24 96.25 36.91 91.46 40.7 C83.02 46.33 75.86 45.18 65.25 45.18 C65.25 60.03 65.25 74.88 65.25 90.18 C67.56 90.18 69.87 90.18 72.25 90.18 C105.74 94.71 143.54 109.64 168.83 132.62 C170.55 134.22 170.55 134.22 173.25 136.18 C176.43 135.86 178.07 134.73 180.27 132.49 C180.83 131.93 181.39 131.37 181.97 130.79 C182.56 130.19 183.16 129.58 183.76 128.95 C184.38 128.33 185 127.71 185.63 127.08 C187.59 125.1 189.55 123.11 191.5 121.11 C192.83 119.77 194.16 118.43 195.49 117.08 C198.75 113.79 202 110.48 205.25 107.18 C203.96 104.3 202.63 102.35 200.32 100.22 C199.75 99.69 199.18 99.15 198.6 98.59 C197.42 97.49 196.23 96.4 195.04 95.31 C190.3 90.78 187.59 86.26 187.03 79.64 C187.88 73.31 189.91 69.39 194.62 64.93 C199.79 61.48 203.88 60.95 209.91 61.5 C215.63 63.16 219.9 67.52 224.02 71.64 C224.57 72.18 225.11 72.71 225.67 73.26 C227.44 75.02 229.21 76.78 230.98 78.54 C232.22 79.77 233.46 81 234.7 82.23 C237.29 84.8 239.88 87.38 242.46 89.97 C245.77 93.26 249.09 96.54 252.41 99.82 C254.97 102.36 257.53 104.9 260.08 107.45 C261.29 108.67 262.52 109.88 263.74 111.08 C265.46 112.77 267.16 114.48 268.86 116.19 C269.37 116.68 269.87 117.17 270.39 117.67 C274.57 121.94 276.96 126.71 277.46 132.72 C276.63 139 274.52 142.77 270.12 147.43 C265.51 150.24 260.62 151.78 255.2 150.81 C248.59 149.01 244.76 145.43 240.19 140.49 C239.51 139.79 238.84 139.09 238.14 138.36 C236.5 136.65 234.87 134.92 233.25 133.18 C230.44 134.46 228.4 135.78 226.22 137.97 C225.66 138.53 225.1 139.1 224.53 139.67 C223.94 140.27 223.34 140.88 222.73 141.5 C222.12 142.12 221.5 142.73 220.87 143.37 C218.91 145.34 216.95 147.32 215 149.3 C213.67 150.64 212.34 151.98 211.01 153.32 C207.75 156.6 204.5 159.89 201.25 163.18 C201.63 163.68 202.01 164.19 202.4 164.71 C203.47 166.14 204.55 167.57 205.62 169.01 C206.96 170.79 208.3 172.57 209.64 174.35 C230.1 202.25 242.18 233.27 248.25 267.18 C248.45 268.27 248.45 268.27 248.66 269.39 C255.42 307.85 248.41 349.63 233.25 385.18 C232.94 385.92 232.63 386.66 232.3 387.42 C219.19 418.21 196.69 446.76 170.25 467.18 C169.71 467.6 169.17 468.02 168.61 468.46 C131.07 497.62 85.79 512.66 38.37 512.55 C37.47 512.55 36.58 512.55 35.65 512.55 C20.83 512.52 6.74 511.49 -7.75 508.18 C-8.59 508 -9.42 507.81 -10.28 507.63 C-29.03 503.47 -46.89 496.29 -63.75 487.18 C-64.35 486.86 -64.95 486.54 -65.56 486.21 C-100.43 467.49 -128.15 438.26 -147.75 404.18 C-148.12 403.55 -148.49 402.92 -148.87 402.27 C-176.08 355.56 -180.88 296.94 -167.75 245.18 C-155.86 201.19 -129.22 159.83 -92.75 132.18 C-91.72 131.39 -90.69 130.6 -89.63 129.79 C-61.87 109.09 -23.99 90.18 11.25 90.18 C11.25 75.33 11.25 60.48 11.25 45.18 C6.3 45.18 1.35 45.18 -3.75 45.18 C-11.14 43.6 -16.62 41.87 -20.97 35.36 C-24.81 28.38 -25.48 21.96 -23.47 14.28 C-21.34 8.06 -17.27 4.39 -11.75 1.18 C-7.83 -0.13 -4.09 0.01 0 0 Z M-7.75 129.18 C-8.67 129.44 -9.6 129.7 -10.55 129.97 C-38.86 138.25 -63.37 152.93 -84.75 173.18 C-85.7 174.06 -86.64 174.94 -87.61 175.84 C-120.78 207.39 -137.71 252.77 -139.14 297.89 C-139.86 342.65 -123.04 387.12 -92.22 419.66 C-90.54 421.37 -88.85 423.08 -87.15 424.77 C-85.74 426.19 -84.34 427.61 -82.97 429.06 C-54.64 458.74 -10.43 475.86 30.1 477.46 C49.48 477.9 68.65 475.67 87.25 470.18 C88.46 469.82 89.68 469.46 90.93 469.09 C135.25 455.13 172.3 424.24 194.16 383.24 C199.89 372.2 204.51 361.12 208.06 349.18 C208.34 348.25 208.62 347.33 208.9 346.38 C213.28 330.97 214.8 315.77 214.69 299.8 C214.68 298.95 214.68 298.1 214.68 297.22 C214.63 285.23 214.09 273.76 210.8 262.15 C210.25 260.19 209.77 258.21 209.3 256.22 C198.56 212.35 169.73 173.71 131.4 150.04 C106.04 134.79 77.54 124.34 47.72 123.9 C46.93 123.89 46.15 123.88 45.34 123.87 C27.11 123.63 9.91 124.11 -7.75 129.18 Z " fill="#3B97D2" transform="translate(204.750732421875,-0.177001953125)"/>
<path d="M0 0 C12.85 0.54 25.02 4.13 37.12 8.25 C37.92 8.5 38.71 8.75 39.53 9.01 C45.73 11.22 48.59 14.47 52 20 C52.39 20.61 52.79 21.22 53.19 21.86 C74.69 56.37 81.03 99.25 72.4 138.76 C66.92 161.46 57.34 182.53 43 201 C42.31 201.89 41.63 202.78 40.92 203.7 C26.66 221.68 9.4 235.57 -11 246 C-12.16 246.61 -13.33 247.23 -14.53 247.86 C-38.29 259.73 -63.6 263.52 -89.91 263.04 C-91.72 263 -93.53 262.99 -95.34 262.98 C-120.7 262.11 -156.26 252.31 -175 234 C-177.48 229.2 -179.2 224.09 -181 219 C-181.37 217.99 -181.75 216.98 -182.13 215.93 C-191.74 187.63 -192.05 154.9 -185 126 C-184.82 125.23 -184.64 124.47 -184.45 123.68 C-177.53 95.47 -161.97 69.86 -142 49 C-141.28 48.22 -140.56 47.44 -139.82 46.63 C-129.43 35.69 -116.62 25.58 -103 19 C-102.34 19 -101.68 19 -101 19 C-100.61 31.49 -101.65 43.88 -102.6 56.32 C-102.88 59.95 -103.14 63.59 -103.4 67.23 C-103.58 69.56 -103.75 71.89 -103.93 74.21 C-104.05 75.83 -104.05 75.83 -104.16 77.49 C-104.68 84.06 -105.67 89.67 -108.12 95.81 C-110.11 103.05 -109.73 110.41 -106 117 C-102.14 122.57 -97.73 127.34 -91 129 C-82.24 130.05 -74.46 130.11 -66.99 124.78 C-60.44 118.92 -58.16 112.53 -57 104 C-55.14 104 -55.14 104 -53.24 104 C-41.54 103.98 -29.84 103.94 -18.14 103.87 C-12.13 103.83 -6.12 103.81 -0.1 103.8 C5.7 103.8 11.5 103.77 17.31 103.73 C19.52 103.71 21.74 103.71 23.95 103.71 C27.05 103.72 30.15 103.69 33.25 103.66 C34.17 103.67 35.09 103.68 36.03 103.69 C40.54 103.6 42.41 103.46 46.07 100.6 C49.19 96.4 48.59 93.03 48 88 C47.33 83.74 46.43 79.57 45.44 75.38 C45.17 74.23 44.9 73.09 44.62 71.91 C42.36 62.7 39.32 54.42 35 46 C34.44 44.87 33.89 43.73 33.32 42.57 C26.55 29.3 13.85 8.92 0 2 C0 1.34 0 0.68 0 0 Z " fill="#FEFEFE" transform="translate(326,196)"/>
<path d="M0 0 C2.52 0.02 5.04 0.02 7.56 0.01 C56.09 0.1 99.56 22.17 133.44 55.95 C156.12 79.86 171.01 110.93 177.37 143.06 C177.68 144.6 178.01 146.14 178.37 147.67 C180.33 156.78 180.22 165.93 180.2 175.21 C180.2 176.08 180.2 176.95 180.2 177.84 C180.16 191.1 179.33 203.5 175.82 216.34 C175.38 218.1 174.94 219.86 174.5 221.62 C162.81 266.78 132.8 305.53 92.82 329.34 C87.61 332.25 82.25 334.84 76.82 337.34 C75.06 338.15 75.06 338.15 73.27 338.99 C59.55 345.1 45.64 349.06 30.82 351.34 C29.52 351.54 28.22 351.75 26.88 351.96 C-7.78 356.99 -42.91 350.95 -74.18 335.34 C-74.82 335.03 -75.46 334.72 -76.12 334.4 C-93.51 325.94 -108.21 314.33 -121.82 300.69 C-123.17 299.34 -124.54 298.01 -125.96 296.73 C-137.96 285.68 -146.78 270.74 -154.18 256.34 C-154.49 255.74 -154.8 255.14 -155.12 254.52 C-176.03 213.86 -178.9 165.31 -165.06 121.93 C-158.62 102.95 -149.39 85.22 -137.18 69.34 C-136.49 68.43 -135.81 67.52 -135.11 66.59 C-112 37.06 -79.27 15.91 -43.3 5.65 C-42.31 5.36 -42.31 5.36 -41.31 5.07 C-27.57 1.34 -14.2 -0.14 0 0 Z M-107.18 62.34 C-108.06 63.15 -108.93 63.97 -109.84 64.81 C-127.08 81.3 -138.77 102.19 -147.18 124.34 C-147.59 125.4 -148 126.46 -148.42 127.55 C-158.9 157.87 -158.81 195.26 -147.86 225.44 C-147.16 227.38 -146.5 229.33 -145.84 231.28 C-139.06 250.78 -128.57 267.96 -114.4 282.93 C-112.18 285.34 -112.18 285.34 -110.11 287.94 C-107.19 291.55 -103.73 294.37 -100.18 297.34 C-99.43 297.97 -98.69 298.6 -97.93 299.25 C-86.37 308.8 -73.74 316.06 -60.18 322.34 C-59.04 322.87 -57.91 323.41 -56.74 323.96 C-40.89 330.88 -22.5 335.26 -5.18 335.34 C-3.73 335.36 -2.28 335.39 -0.83 335.41 C44.48 336.02 84.21 319.74 116.82 288.34 C117.46 287.75 118.11 287.16 118.77 286.55 C143.34 263.34 157.58 228.52 161.56 195.53 C161.73 194.12 161.91 192.71 162.11 191.3 C167.34 153.56 154.46 111.83 131.74 81.7 C129.51 78.84 127.19 76.08 124.82 73.34 C124.35 72.78 123.87 72.23 123.38 71.66 C95.76 39.81 55.84 20.38 13.82 17.34 C-31.59 15.21 -74.29 30.81 -107.18 62.34 Z " fill="#BCC2C7" transform="translate(239.176025390625,123.663818359375)"/>
<path d="M0 0 C29.92 0.5 57.77 15.68 79 36 C79.73 36.67 80.47 37.34 81.23 38.04 C103.06 58.68 118.2 90.76 119.5 120.88 C119.35 124.17 118.94 125.1 117.12 128.06 C114.24 130.69 112.76 131.13 108.96 131.12 C107.7 131.12 107.7 131.12 106.41 131.12 C105.48 131.12 104.55 131.12 103.59 131.11 C102.13 131.11 102.13 131.11 100.64 131.11 C97.4 131.11 94.17 131.11 90.93 131.1 C88.69 131.1 86.45 131.09 84.21 131.09 C78.31 131.09 72.41 131.08 66.51 131.07 C60.49 131.06 54.47 131.05 48.45 131.05 C36.63 131.04 24.82 131.02 13 131 C12.88 130.4 12.76 129.79 12.63 129.17 C12.47 128.37 12.3 127.57 12.12 126.75 C11.96 125.96 11.8 125.17 11.63 124.36 C11.01 122.03 10.09 120.15 9 118 C6 101.15 5.79 83.56 4.66 66.5 C4.24 60.1 3.81 53.71 3.38 47.32 C3.27 45.76 3.17 44.2 3.06 42.64 C2.11 28.42 1.08 14.21 0 0 Z " fill="#FE5364" transform="translate(256,169)"/>
<path d="M0 0 C3.76 1.45 6.48 3.31 8.94 6.56 C10 9 10 9 10 12 C11.32 12.33 12.64 12.66 14 13 C12.68 13 11.36 13 10 13 C10.13 13.83 10.26 14.67 10.39 15.52 C11.74 24.45 12.59 33.33 13.22 42.33 C13.32 43.77 13.43 45.21 13.53 46.65 C13.81 50.43 14.07 54.2 14.34 57.97 C14.6 61.72 14.87 65.47 15.14 69.23 C15.25 70.71 15.36 72.19 15.46 73.67 C15.54 74.76 15.54 74.76 15.62 75.88 C15.78 78.07 15.94 80.26 16.09 82.45 C16.74 91.48 17.4 100.52 18.09 109.55 C18.21 111.08 18.21 111.08 18.33 112.65 C18.54 115.43 18.77 118.22 19 121 C19.07 121.93 19.15 122.86 19.22 123.82 C19.34 125.15 19.34 125.15 19.46 126.52 C19.56 127.7 19.56 127.7 19.66 128.9 C20.15 131.92 21.59 134.31 23 137 C24.26 145.88 23.36 153.68 18 161 C13.39 166.05 8.1 169.65 1.2 170.43 C-0.16 170.46 -1.52 170.46 -2.88 170.44 C-3.58 170.43 -4.29 170.42 -5.03 170.41 C-13.49 170.12 -17.56 167.75 -23.31 161.75 C-28.67 155.3 -30.32 149.91 -30.4 141.59 C-30 139 -30 139 -28.54 135.81 C-26.9 132.05 -26.35 128.52 -25.92 124.43 C-25.84 123.7 -25.76 122.97 -25.68 122.22 C-24.69 112.55 -24.01 102.86 -23.31 93.16 C-23.16 91.11 -23.01 89.05 -22.85 86.99 C-22.46 81.63 -22.07 76.26 -21.68 70.9 C-21.05 62.29 -20.42 53.69 -19.78 45.09 C-19.56 42.11 -19.35 39.12 -19.13 36.14 C-18.81 31.81 -18.49 27.49 -18.16 23.16 C-18.02 21.23 -17.88 19.3 -17.74 17.37 C-17.66 16.39 -17.59 15.41 -17.51 14.4 C-17.45 13.61 -17.39 12.82 -17.33 12 C-16.54 7.21 -13.75 4.63 -10.19 1.62 C-6.34 -0.34 -4.27 -0.6 0 0 Z " fill="#BDC2C6" transform="translate(246,156)"/>
<path d="M0 0 C3.29 2.35 6.14 4.92 8.99 7.77 C9.53 8.3 10.07 8.83 10.63 9.39 C12.41 11.14 14.18 12.9 15.94 14.66 C17.18 15.89 18.42 17.12 19.66 18.35 C22.26 20.93 24.84 23.51 27.43 26.09 C30.73 29.39 34.05 32.67 37.37 35.94 C39.94 38.48 42.49 41.02 45.04 43.57 C46.26 44.79 47.48 46 48.71 47.2 C50.43 48.9 52.13 50.6 53.83 52.31 C54.33 52.8 54.84 53.29 55.35 53.79 C59.53 58.06 61.92 62.83 62.43 68.84 C61.59 75.12 59.48 78.9 55.09 83.55 C50.47 86.36 45.58 87.9 40.17 86.93 C33.55 85.13 29.7 81.54 25.09 76.61 C24.43 75.93 23.76 75.25 23.08 74.54 C19.87 71.22 16.77 67.81 13.75 64.31 C9.95 59.93 5.89 55.83 1.78 51.74 C1.06 51.02 0.35 50.3 -0.38 49.57 C-4.45 45.51 -8.62 41.63 -12.97 37.87 C-26.77 25.93 -26.77 25.93 -27.79 18.3 C-27.99 12.23 -26.75 8.03 -22.79 3.3 C-16.25 -2.9 -7.9 -4.82 0 0 Z " fill="#CC4B4C" transform="translate(419.7855987548828,63.70074462890625)"/>
<path d="M0 0 C17.82 0 35.64 0 54 0 C54 15.18 54 30.36 54 46 C48.39 45.67 42.78 45.34 37 45 C33.66 44.92 30.34 44.86 27 44.88 C26.27 44.87 25.53 44.87 24.77 44.86 C16.47 44.88 8.32 45.51 0 46 C0 30.82 0 15.64 0 0 Z " fill="#2980BA" transform="translate(216,44)"/>
<path d="M0 0 C6.46 3.97 11.98 10.08 14.38 17.31 C15.42 26.28 14.8 33.91 9.38 41.31 C4.76 46.36 -0.52 49.96 -7.43 50.75 C-8.79 50.77 -10.14 50.77 -11.5 50.75 C-12.21 50.74 -12.92 50.73 -13.65 50.72 C-22.11 50.43 -26.19 48.06 -31.94 42.06 C-37.19 35.74 -39.27 30.07 -38.97 21.82 C-37.79 13.19 -32.55 6.32 -25.92 0.93 C-18.75 -3.52 -7.55 -3.52 0 0 Z " fill="#808385" transform="translate(254.625,275.6875)"/>
<path d="M0 0 C3.86 1.58 6.29 4.06 9.2 7.01 C9.69 7.49 10.17 7.98 10.67 8.48 C12.2 10.02 13.72 11.57 15.25 13.12 C16.29 14.18 17.33 15.23 18.38 16.28 C20.92 18.85 23.46 21.42 26 24 C24.7 26.86 23.34 28.91 21.11 31.12 C20.53 31.7 19.95 32.28 19.35 32.87 C18.73 33.49 18.1 34.1 17.46 34.73 C16.82 35.37 16.18 36.01 15.52 36.67 C13.48 38.7 11.43 40.73 9.38 42.75 C7.99 44.13 6.6 45.51 5.21 46.89 C1.81 50.26 -1.59 53.63 -5 57 C-8.99 55.18 -11.41 52.58 -14.25 49.31 C-18.06 45.04 -21.93 41.08 -26.34 37.4 C-27.99 36.01 -29.5 34.54 -31 33 C-29.7 30.14 -28.34 28.09 -26.11 25.88 C-25.53 25.3 -24.95 24.72 -24.35 24.13 C-23.73 23.51 -23.1 22.9 -22.46 22.27 C-21.82 21.63 -21.18 20.99 -20.52 20.33 C-18.48 18.3 -16.43 16.27 -14.38 14.25 C-12.99 12.87 -11.6 11.49 -10.21 10.11 C-6.81 6.74 -3.41 3.37 0 0 Z " fill="#7F8183" transform="translate(411,106)"/>
</svg>
